<mxfile host="app.diagrams.net" modified="2024-07-19T02:56:04.997Z" agent="Mozilla/5.0 (Macintosh; Intel Mac OS X 10_15_7) AppleWebKit/605.1.15 (KHTML, like Gecko) Version/17.5 Safari/605.1.15" etag="2O19CtxDvTlRVThKAPxn" version="24.7.1" type="github">
  <diagram name="第 1 页" id="u2AB9wQBELKmdhNYpe54">
    <mxGraphModel dx="1195" dy="668" grid="1" gridSize="10" guides="1" tooltips="1" connect="1" arrows="1" fold="1" page="1" pageScale="1" pageWidth="827" pageHeight="1169" math="0" shadow="0">
      <root>
        <mxCell id="0" />
        <mxCell id="1" parent="0" />
        <mxCell id="y15nQMnxD66K1DRiPsF6-1" value="UserID" style="text;html=1;align=center;verticalAlign=middle;whiteSpace=wrap;rounded=0;" vertex="1" parent="1">
          <mxGeometry x="40" y="310" width="60" height="30" as="geometry" />
        </mxCell>
        <mxCell id="y15nQMnxD66K1DRiPsF6-2" value="SectionID" style="text;html=1;align=center;verticalAlign=middle;whiteSpace=wrap;rounded=0;" vertex="1" parent="1">
          <mxGeometry x="40" y="350" width="60" height="30" as="geometry" />
        </mxCell>
        <mxCell id="y15nQMnxD66K1DRiPsF6-3" value="" style="shape=flexArrow;endArrow=classic;html=1;rounded=0;" edge="1" parent="1">
          <mxGeometry width="50" height="50" relative="1" as="geometry">
            <mxPoint x="110" y="340" as="sourcePoint" />
            <mxPoint x="170" y="340" as="targetPoint" />
          </mxGeometry>
        </mxCell>
        <mxCell id="y15nQMnxD66K1DRiPsF6-4" value="用户信息" style="text;html=1;align=center;verticalAlign=middle;whiteSpace=wrap;rounded=0;" vertex="1" parent="1">
          <mxGeometry x="190" y="310" width="60" height="30" as="geometry" />
        </mxCell>
        <mxCell id="y15nQMnxD66K1DRiPsF6-5" value="会话记录" style="text;html=1;align=center;verticalAlign=middle;whiteSpace=wrap;rounded=0;" vertex="1" parent="1">
          <mxGeometry x="190" y="350" width="60" height="30" as="geometry" />
        </mxCell>
        <mxCell id="y15nQMnxD66K1DRiPsF6-6" value="" style="shape=flexArrow;endArrow=classic;html=1;rounded=0;" edge="1" parent="1">
          <mxGeometry width="50" height="50" relative="1" as="geometry">
            <mxPoint x="260" y="340" as="sourcePoint" />
            <mxPoint x="320" y="340" as="targetPoint" />
          </mxGeometry>
        </mxCell>
        <mxCell id="y15nQMnxD66K1DRiPsF6-7" value="大语言模型处理" style="rounded=1;whiteSpace=wrap;html=1;" vertex="1" parent="1">
          <mxGeometry x="340" y="310" width="120" height="60" as="geometry" />
        </mxCell>
        <mxCell id="y15nQMnxD66K1DRiPsF6-9" value="" style="shape=flexArrow;endArrow=classic;html=1;rounded=0;" edge="1" parent="1">
          <mxGeometry width="50" height="50" relative="1" as="geometry">
            <mxPoint x="480" y="340" as="sourcePoint" />
            <mxPoint x="540" y="340" as="targetPoint" />
          </mxGeometry>
        </mxCell>
        <mxCell id="y15nQMnxD66K1DRiPsF6-10" value="response" style="text;html=1;align=center;verticalAlign=middle;whiteSpace=wrap;rounded=0;" vertex="1" parent="1">
          <mxGeometry x="550" y="325" width="60" height="30" as="geometry" />
        </mxCell>
        <mxCell id="y15nQMnxD66K1DRiPsF6-11" value="" style="shape=flexArrow;endArrow=classic;html=1;rounded=0;" edge="1" parent="1">
          <mxGeometry width="50" height="50" relative="1" as="geometry">
            <mxPoint x="610" y="325" as="sourcePoint" />
            <mxPoint x="660" y="285" as="targetPoint" />
          </mxGeometry>
        </mxCell>
        <mxCell id="y15nQMnxD66K1DRiPsF6-12" value="返回输出给前端" style="rounded=1;whiteSpace=wrap;html=1;" vertex="1" parent="1">
          <mxGeometry x="670" y="230" width="120" height="60" as="geometry" />
        </mxCell>
        <mxCell id="y15nQMnxD66K1DRiPsF6-13" value="" style="shape=flexArrow;endArrow=classic;html=1;rounded=0;" edge="1" parent="1">
          <mxGeometry width="50" height="50" relative="1" as="geometry">
            <mxPoint x="610" y="347.5" as="sourcePoint" />
            <mxPoint x="660" y="382.5" as="targetPoint" />
          </mxGeometry>
        </mxCell>
        <mxCell id="y15nQMnxD66K1DRiPsF6-14" value="更新数据库" style="rounded=1;whiteSpace=wrap;html=1;" vertex="1" parent="1">
          <mxGeometry x="670" y="360" width="120" height="60" as="geometry" />
        </mxCell>
        <mxCell id="y15nQMnxD66K1DRiPsF6-15" value="前端" style="swimlane;whiteSpace=wrap;html=1;" vertex="1" parent="1">
          <mxGeometry x="15" y="280" width="110" height="130" as="geometry" />
        </mxCell>
        <mxCell id="y15nQMnxD66K1DRiPsF6-17" value="数据库" style="swimlane;whiteSpace=wrap;html=1;" vertex="1" parent="1">
          <mxGeometry x="165" y="280" width="110" height="130" as="geometry" />
        </mxCell>
        <mxCell id="y15nQMnxD66K1DRiPsF6-18" value="前端" style="swimlane;whiteSpace=wrap;html=1;" vertex="1" parent="1">
          <mxGeometry x="20" y="760" width="115" height="180" as="geometry" />
        </mxCell>
        <mxCell id="y15nQMnxD66K1DRiPsF6-19" value="UserId" style="text;html=1;align=center;verticalAlign=middle;whiteSpace=wrap;rounded=0;" vertex="1" parent="y15nQMnxD66K1DRiPsF6-18">
          <mxGeometry x="25" y="30" width="60" height="30" as="geometry" />
        </mxCell>
        <mxCell id="y15nQMnxD66K1DRiPsF6-20" value="SectionId" style="text;html=1;align=center;verticalAlign=middle;whiteSpace=wrap;rounded=0;" vertex="1" parent="y15nQMnxD66K1DRiPsF6-18">
          <mxGeometry x="25" y="60" width="60" height="30" as="geometry" />
        </mxCell>
        <mxCell id="y15nQMnxD66K1DRiPsF6-21" value="用户信息" style="text;html=1;align=center;verticalAlign=middle;whiteSpace=wrap;rounded=0;" vertex="1" parent="y15nQMnxD66K1DRiPsF6-18">
          <mxGeometry x="22.5" y="105" width="60" height="30" as="geometry" />
        </mxCell>
        <mxCell id="y15nQMnxD66K1DRiPsF6-34" value="UserID&lt;div&gt;SectionID&lt;/div&gt;" style="ellipse;whiteSpace=wrap;html=1;" vertex="1" parent="y15nQMnxD66K1DRiPsF6-18">
          <mxGeometry y="25" width="115" height="75" as="geometry" />
        </mxCell>
        <mxCell id="y15nQMnxD66K1DRiPsF6-35" value="用户信息" style="ellipse;whiteSpace=wrap;html=1;" vertex="1" parent="y15nQMnxD66K1DRiPsF6-18">
          <mxGeometry y="105" width="115" height="75" as="geometry" />
        </mxCell>
        <mxCell id="y15nQMnxD66K1DRiPsF6-23" value="" style="shape=flexArrow;endArrow=classic;html=1;rounded=0;" edge="1" parent="1">
          <mxGeometry width="50" height="50" relative="1" as="geometry">
            <mxPoint x="120" y="820" as="sourcePoint" />
            <mxPoint x="170" y="820" as="targetPoint" />
          </mxGeometry>
        </mxCell>
        <mxCell id="y15nQMnxD66K1DRiPsF6-24" value="数据库" style="swimlane;whiteSpace=wrap;html=1;" vertex="1" parent="1">
          <mxGeometry x="165" y="760" width="110" height="100" as="geometry" />
        </mxCell>
        <mxCell id="y15nQMnxD66K1DRiPsF6-25" value="会话记录" style="text;html=1;align=center;verticalAlign=middle;whiteSpace=wrap;rounded=0;" vertex="1" parent="y15nQMnxD66K1DRiPsF6-24">
          <mxGeometry x="25" y="40" width="60" height="30" as="geometry" />
        </mxCell>
        <mxCell id="y15nQMnxD66K1DRiPsF6-26" value="" style="shape=flexArrow;endArrow=classic;html=1;rounded=0;" edge="1" parent="1">
          <mxGeometry width="50" height="50" relative="1" as="geometry">
            <mxPoint x="260" y="820" as="sourcePoint" />
            <mxPoint x="320" y="820" as="targetPoint" />
          </mxGeometry>
        </mxCell>
        <mxCell id="y15nQMnxD66K1DRiPsF6-27" value="大语言模型处理" style="rounded=1;whiteSpace=wrap;html=1;" vertex="1" parent="1">
          <mxGeometry x="340" y="810" width="120" height="60" as="geometry" />
        </mxCell>
        <mxCell id="y15nQMnxD66K1DRiPsF6-28" value="" style="shape=flexArrow;endArrow=classic;html=1;rounded=0;" edge="1" parent="1">
          <mxGeometry width="50" height="50" relative="1" as="geometry">
            <mxPoint x="480" y="840" as="sourcePoint" />
            <mxPoint x="540" y="840" as="targetPoint" />
          </mxGeometry>
        </mxCell>
        <mxCell id="y15nQMnxD66K1DRiPsF6-29" value="response" style="text;html=1;align=center;verticalAlign=middle;whiteSpace=wrap;rounded=0;" vertex="1" parent="1">
          <mxGeometry x="550" y="825" width="60" height="30" as="geometry" />
        </mxCell>
        <mxCell id="y15nQMnxD66K1DRiPsF6-30" value="返回输出给前端" style="rounded=1;whiteSpace=wrap;html=1;" vertex="1" parent="1">
          <mxGeometry x="670" y="730" width="120" height="60" as="geometry" />
        </mxCell>
        <mxCell id="y15nQMnxD66K1DRiPsF6-31" value="" style="shape=flexArrow;endArrow=classic;html=1;rounded=0;" edge="1" parent="1">
          <mxGeometry width="50" height="50" relative="1" as="geometry">
            <mxPoint x="610" y="847.5" as="sourcePoint" />
            <mxPoint x="660" y="882.5" as="targetPoint" />
          </mxGeometry>
        </mxCell>
        <mxCell id="y15nQMnxD66K1DRiPsF6-32" value="更新数据库" style="rounded=1;whiteSpace=wrap;html=1;" vertex="1" parent="1">
          <mxGeometry x="670" y="860" width="120" height="60" as="geometry" />
        </mxCell>
        <mxCell id="y15nQMnxD66K1DRiPsF6-33" value="" style="shape=flexArrow;endArrow=classic;html=1;rounded=0;" edge="1" parent="1">
          <mxGeometry width="50" height="50" relative="1" as="geometry">
            <mxPoint x="610" y="830" as="sourcePoint" />
            <mxPoint x="660" y="790" as="targetPoint" />
          </mxGeometry>
        </mxCell>
        <mxCell id="y15nQMnxD66K1DRiPsF6-36" value="" style="shape=flexArrow;endArrow=classic;html=1;rounded=0;" edge="1" parent="1">
          <mxGeometry width="50" height="50" relative="1" as="geometry">
            <mxPoint x="120" y="903" as="sourcePoint" />
            <mxPoint x="320" y="860" as="targetPoint" />
          </mxGeometry>
        </mxCell>
      </root>
    </mxGraphModel>
  </diagram>
</mxfile>
